# xmcd
#
# Track frame offsets:
#  150
#  14865
#  35579
#  53745
#  69546
#  83106
#  100734
#  116240
#  129457
#  147816
#
# Disc length: 2195 seconds
#
# Revision: 0
# Processed by: cddbd v1.5.2PL0 Copyright (c) Steve Scherf et al.
# Submitted via: AltoMP3_Maker 3.0
#
DISCID=8c08910a
DTITLE=Johnny Reid - Kicking Stones
DYEAR=1900
DGENRE=
TTITLE0=To The End Of The Road
TTITLE1=Out Of The Blue
TTITLE2=Darlin'
TTITLE3=Thank-You
TTITLE4=Which Way Is Home
TTITLE5=Feelin' Alright Today
TTITLE6=That Kind Of Lonely
TTITLE7=Kickin' Stones
TTITLE8=What I Did For Love
TTITLE9=Love Sweet Love
EXTD=
EXTT0=
EXTT1=
EXTT2=
EXTT3=
EXTT4=
EXTT5=
EXTT6=
EXTT7=
EXTT8=
EXTT9=
PLAYORDER=
